<svg width="56" height="56" viewBox="0 0 56 56" fill="none" xmlns="http://www.w3.org/2000/svg">
<g id="location_on">
<mask id="mask0_157_1671" style="mask-type:alpha" maskUnits="userSpaceOnUse" x="0" y="0" width="56" height="56">
<rect id="Bounding box" width="56" height="56" fill="#D9D9D9"/>
</mask>
<g mask="url(#mask0_157_1671)">
<path id="location_on_2" d="M27.9999 28.0001C29.2833 28.0001 30.3819 27.5431 31.2958 26.6292C32.2096 25.7154 32.6666 24.6167 32.6666 23.3334C32.6666 22.0501 32.2096 20.9515 31.2958 20.0376C30.3819 19.1237 29.2833 18.6667 27.9999 18.6667C26.7166 18.6667 25.618 19.1237 24.7041 20.0376C23.7902 20.9515 23.3333 22.0501 23.3333 23.3334C23.3333 24.6167 23.7902 25.7154 24.7041 26.6292C25.618 27.5431 26.7166 28.0001 27.9999 28.0001ZM27.9999 51.3334C21.7388 46.0056 17.0624 41.057 13.9708 36.4876C10.8791 31.9181 9.33325 27.689 9.33325 23.8001C9.33325 17.9667 11.2096 13.3195 14.9624 9.85841C18.7152 6.3973 23.061 4.66675 27.9999 4.66675C32.9388 4.66675 37.2846 6.3973 41.0374 9.85841C44.7902 13.3195 46.6666 17.9667 46.6666 23.8001C46.6666 27.689 45.1208 31.9181 42.0291 36.4876C38.9374 41.057 34.261 46.0056 27.9999 51.3334Z" fill="#217BFB"/>
</g>
</g>
</svg>
